<svg height="384pt" viewBox="-16 0 384 384" width="384pt" xmlns="http://www.w3.org/2000/svg"><path d="m272 199.039062c35.359375 0 64 28.722657 64 64.082032 0 35.4375-28.640625 64.160156-64 64.160156s-64-28.722656-64-64.160156c0-35.359375 28.640625-64.082032 64-64.082032zm0 0" fill="#e0f7fa"/><path d="m112 16c53.039062 0 96 43.039062 96 96.160156s-42.960938 96.238282-96 96.238282-96-43.117188-96-96.238282 42.960938-96.160156 96-96.160156zm0 0" fill="#4dd0e1"/><path d="m141.359375 329.921875c0-21.03125-17.011719-38.082031-38-38.082031-20.984375 0-38 17.050781-38 38.082031 0 21.027344 17.015625 38.078125 38 38.078125 20.988281 0 38-17.050781 38-38.078125zm0 0" fill="#e0f7fa"/><g fill="#012e52"><path d="m112 224.398438c61.761719 0 112-50.351563 112-112.238282 0-61.839844-50.238281-112.160156-112-112.160156s-112 50.320312-112 112.160156c0 61.886719 50.238281 112.238282 112 112.238282zm0-192.398438c44.113281 0 80 35.960938 80 80.160156 0 44.238282-35.886719 80.238282-80 80.238282s-80-36-80-80.238282c0-44.199218 35.886719-80.160156 80-80.160156zm0 0"/><path d="m192 263.121094c0 44.199218 35.886719 80.160156 80 80.160156s80-35.960938 80-80.160156c0-44.160156-35.886719-80.082032-80-80.082032s-80 35.929688-80 80.082032zm80-48.082032c26.472656 0 48 21.570313 48 48.082032 0 26.550781-21.527344 48.160156-48 48.160156s-48-21.609375-48-48.160156c0-26.511719 21.527344-48.082032 48-48.082032zm0 0"/><path d="m49.359375 329.921875c0 29.820313 24.226563 54.078125 54 54.078125 29.777344 0 54-24.257812 54-54.078125 0-29.824219-24.222656-54.082031-54-54.082031-29.773437 0-54 24.265625-54 54.082031zm76 0c0 12.175781-9.863281 22.078125-22 22.078125s-22-9.902344-22-22.078125c0-12.179687 9.863281-22.082031 22-22.082031s22 9.902344 22 22.082031zm0 0"/><path d="m84.6875 154.191406c3.128906 3.128906 7.214844 4.6875 11.3125 4.6875s8.183594-1.558594 11.3125-4.6875c6.246094-6.246094 6.246094-16.375 0-22.625l-24-24c-6.25-6.246094-16.375-6.246094-22.625 0-6.246094 6.25-6.246094 16.378906 0 22.625zm0 0"/></g></svg>