<svg id="Capa_1" enable-background="new 0 0 511.035 511.035" height="512" viewBox="0 0 511.035 511.035" width="512" xmlns="http://www.w3.org/2000/svg"><g><g><path d="m165.305 197.011s0-20.211 0-41.424 55.609-73 80.886-71.468 49.476 36.396 49.476 36.396v37.902z" fill="#555a66"/></g><g><path d="m164.793 314.024v41.424c0 21.213 55.609 73 80.886 71.468s49.988-36.256 49.988-36.256v-37.89z" fill="#ff6c52"/></g><g><path d="m501.716 247.26c-7.499-16.372-26.827-53.836-58.763-84.634l-38.55 2.599-10.689-36.878c-17.354-7.904-36.805-12.76-58.406-12.76-13.059 0-26.347 1.784-39.646 4.934l-27.673 33.13-32.322-10.625v-.004c-25.236 12.604-49.241 28.174-70.362 43.672l-.511 137.413c21.244 15.622 45.433 31.338 70.874 44.043v-.001l32.322-10.625 27.675 33.132c13.298 3.15 26.585 4.932 39.644 4.932 22.056 0 41.864-5.072 59.493-13.273l9.603-36.366 39.411 1.76c31.421-30.636 50.471-67.57 57.902-83.794 2.422-5.293 2.422-11.362-.002-16.655z" fill="#fcf7ca"/></g><g><g><path d="" fill="#ffe89c"/></g><g><path d="m235.667 368.15v-.001l32.322-10.625 27.675 33.132c13.298 3.15 26.585 4.932 39.644 4.932 22.056 0 41.864-5.072 59.493-13.273l9.603-36.366 4.561.204c-182.032-16.517-243.66-159.459-243.66-159.459l-.511 137.413c21.244 15.622 45.433 31.338 70.873 44.043z" fill="#ffe89c"/></g></g><g><g><path d="m113.211 228.826c-10.382 7.088-24.995 2.853-29.842-9.239-.042-.106-.092-.209-.135-.315l1.342 74.297c.019-.055.042-.108.061-.163 4.177-11.759 17.818-16.361 28.236-10.818 1.368.728 2.683 1.623 3.911 2.707 12.97 11.455 29.356 25.096 48.01 38.812 6.676-21.862 10.18-45.385 10.18-69.545 0-23.542-3.322-46.483-9.669-67.869-19.597 14.38-36.717 28.697-50.03 40.522-.665.591-1.355 1.127-2.064 1.611z" fill="#555a66"/></g></g><g><path d="m416.361 254.562c0-34.833 9.425-67.332 26.593-91.936-13.977-13.479-30.364-25.682-49.239-34.279-24.117 34.612-37.354 79.215-37.354 126.215 0 47.699 13.636 92.929 38.44 127.752 18.803-8.747 35.119-21.057 49.014-34.606-17.712-24.742-27.454-57.736-27.454-93.146z" fill="#636978"/></g><g><path d="m394.801 382.315c18.803-8.747 35.119-21.057 49.014-34.606-25.892 0-49.64-2.472-71.382-6.798 5.927 14.906 13.415 28.836 22.368 41.404z" fill="#555a66"/></g><g><path d="m235.667 368.152c19.518 9.747 39.771 17.714 60 22.505v-270.142c-20.229 4.791-40.482 12.763-60 22.51z" fill="#636978"/></g><g><path d="m235.667 275.636v92.516c19.518 9.747 39.771 17.714 60 22.505v-75.6c-23.555-11.631-43.426-25.352-60-39.421z" fill="#555a66"/></g><g><path d="m28.676 169.25c-11.695 0-21.177 9.481-21.177 21.176 0 6.242.772 12.304 2.226 18.094 8.378 33.367 8.378 68.091 0 101.459-1.454 5.79-2.226 11.852-2.226 18.094 0 11.696 9.481 21.177 21.177 21.177 14.579 0 28.174-11.416 39.637-26.116 31.742-40.703 29.863-98.751-5.895-135.975-10.121-10.535-21.59-17.909-33.742-17.909z" fill="#ff6c52"/></g><g><path d="m267.989 92.645c-6.757-4.608-14.227-8.067-21.799-8.526-25.277-1.532-80.886 50.255-80.886 71.468v11.511c43.455-63.83 102.685-74.453 102.685-74.453z" fill="#ff8870"/></g><g><path d="m286.224 301.471c0 24.742 16.913 45.453 40.133 50.748 6.648 1.516 13.609-.553 18.439-5.366l34.881-34.756c5.883-5.862 5.883-15.389 0-21.251l-34.881-34.756c-4.83-4.813-11.791-6.882-18.439-5.366-23.22 5.293-40.133 26.005-40.133 50.747z" fill="#ff8870"/></g><g><path d="m286.224 301.471c0 24.742 16.913 45.453 40.133 50.748 6.648 1.516 13.609-.553 18.439-5.366l10.375-10.337c-50.509-20.892-28.814-85.792-28.814-85.792-23.22 5.293-40.133 26.005-40.133 50.747z" fill="#ff6c52"/></g><g><path d="m450.815 217.641c-4.143 0-7.5 3.358-7.5 7.5v12c0 4.142 3.357 7.5 7.5 7.5s7.5-3.358 7.5-7.5v-12c0-4.142-3.358-7.5-7.5-7.5z"/><path d="m42.747 199.905c-2.81-3.042-7.556-3.23-10.598-.418-3.042 2.811-3.229 7.556-.418 10.599l15.983 17.296c1.478 1.6 3.49 2.41 5.51 2.41 1.82 0 3.646-.659 5.088-1.992 3.042-2.811 3.229-7.556.418-10.599z"/><path d="m47.715 291.118-15.983 17.296c-2.812 3.042-2.624 7.788.418 10.599 1.442 1.333 3.268 1.992 5.088 1.992 2.019 0 4.032-.81 5.51-2.41l15.983-17.296c2.812-3.042 2.624-7.788-.418-10.599-3.041-2.811-7.787-2.623-10.598.418z"/><path d="m50.223 266.75c4.143 0 7.5-3.358 7.5-7.5s-3.357-7.5-7.5-7.5h-9c-4.143 0-7.5 3.358-7.5 7.5s3.357 7.5 7.5 7.5z"/><path d="m318.727 291.069 14.488 3.882c.65.174 1.304.257 1.946.257 3.312 0 6.342-2.21 7.239-5.561 1.072-4.001-1.302-8.114-5.303-9.186l-14.488-3.882c-4.001-1.07-8.113 1.303-9.186 5.303-1.071 4.002 1.303 8.115 5.304 9.187z"/><path d="m320.663 326.619c.643 0 1.296-.083 1.946-.257l14.488-3.882c4.001-1.072 6.375-5.185 5.303-9.186-1.071-4.001-5.185-6.373-9.186-5.303l-14.488 3.882c-4.001 1.072-6.375 5.185-5.303 9.186.899 3.35 3.929 5.56 7.24 5.56z"/><path d="m508.534 244.137c-12.969-28.318-62.282-121.711-152.303-134.573-4.091-.581-7.899 2.264-8.485 6.364s2.264 7.899 6.364 8.485c9.983 1.426 19.427 3.971 28.349 7.375-20.928 33.373-32.72 74.719-33.549 117.884-6.633-5.895-15.567-8.234-24.22-6.262-7.978 1.819-15.239 5.187-21.523 9.735v-126.617c7.54-1.542 15.057-2.609 22.509-3.112 4.133-.279 7.257-3.855 6.979-7.988s-3.854-7.262-7.988-6.978c-8.583.579-17.228 1.85-25.88 3.692-8.095-10.44-28.903-34.101-52.141-35.51-17.005-1.029-41.282 15.778-58.358 31.85-7.15 6.73-30.481 30.018-30.481 47.104v27.336c-18.541 13.766-34.749 27.35-47.51 38.685-3.08 2.735-7.136 3.766-11.132 2.822-4.013-.947-7.203-3.689-8.781-7.526-.029-.072-.055-.145-.084-.216-.054-.134-.119-.26-.18-.39-5.201-12.788-12.692-24.341-22.291-34.334-12.889-13.414-26.058-20.213-39.15-20.213-.103 0-.206 0-.308.001-15.702.128-28.429 13.128-28.371 28.98.025 6.95.927 13.851 2.681 20.511 7.99 30.356 7.881 63.988-.316 97.258-1.521 6.174-2.316 12.556-2.363 18.967-.057 7.845 2.957 15.237 8.486 20.815 5.402 5.45 12.554 8.457 20.138 8.468h.05c15.219 0 30.544-9.758 45.552-29.004 7.479-9.589 13.331-20.234 17.406-31.64.023-.06.056-.113.078-.174.019-.053.036-.106.054-.159 1.406-3.81 4.482-6.584 8.476-7.617 4.152-1.072 8.375-.069 11.578 2.759 12.413 10.964 27.889 23.872 45.475 36.955v27.576c0 17.086 23.331 40.374 30.481 47.104 16.576 15.601 39.956 31.895 56.846 31.895.51 0 1.015-.015 1.513-.045 23.178-1.405 44.487-25.2 52.593-35.391 12.258 2.615 24.504 4.076 36.581 4.076 102.916 0 158.609-104.134 173.227-136.049 3.332-7.275 3.332-15.623-.002-22.899zm-112.216-106.186c13.701 6.987 25.984 15.959 36.876 25.845-15.728 25.084-24.334 57.043-24.334 90.767 0 34.37 8.908 66.812 25.187 92.107-10.835 9.937-23.066 18.974-36.72 26.054-9.084-13.774-16.468-29.105-21.995-45.71l9.638-9.604c4.268-4.253 6.619-9.913 6.619-15.938s-2.351-11.686-6.618-15.939l-20.88-20.804c-.142-3.376-.232-6.781-.232-10.166.002-42.926 11.496-84.063 32.459-116.612zm-68.292 120.084c.871-.198 1.757-.295 2.642-.295 3.244 0 6.467 1.302 8.835 3.663l34.882 34.755c1.423 1.418 2.206 3.305 2.206 5.313s-.784 3.896-2.207 5.313l-34.881 34.756c-3.013 3.003-7.407 4.296-11.478 3.367-20.195-4.604-34.301-22.466-34.301-43.435 0-20.971 14.105-38.832 34.302-43.437zm-39.859 10.985c-6.013 9.374-9.443 20.535-9.443 32.451s3.43 23.076 9.443 32.45v47.059c-15.137-4.299-30.251-10.323-45-17.453v-47.057c0-4.142-3.357-7.5-7.5-7.5s-7.5 3.358-7.5 7.5v39.376c-19.385-10.472-37.896-22.534-54.704-34.683 5.977-21.304 9.01-43.681 9.01-66.602 0-22.302-2.872-44.105-8.531-64.894 16.675-12.027 35.019-23.959 54.225-34.331v131.133c0 4.142 3.357 7.5 7.5 7.5s7.5-3.358 7.5-7.5v-138.809c14.747-7.127 29.861-13.154 45-17.455zm-115.362-113.433c0-5.93 8.85-20.263 25.763-36.182 18.02-16.959 37.46-28.396 47.169-27.8 12.987.787 27.494 13.728 36.965 24.602-38.889 11.349-77.212 33.138-109.897 55.917zm-110.406 162.936c-8.266 10.599-20.822 23.228-33.724 23.228h-.028c-3.561-.005-6.937-1.436-9.506-4.028-2.697-2.721-4.168-6.324-4.14-10.146.038-5.24.687-10.45 1.928-15.487 8.796-35.699 8.885-71.891.258-104.666-1.431-5.432-2.166-11.066-2.187-16.748-.028-7.617 6.024-13.864 13.492-13.924.062 0 .122-.001.183-.001 8.854 0 18.387 5.25 28.334 15.605 8.385 8.729 14.912 18.829 19.398 30.022.018.045.04.087.058.132 8.654 21.656 9.075 45.847 1.186 68.177-.026.071-.057.138-.082.209-3.538 9.959-8.642 19.254-15.17 27.627zm34.812-45.052c1.585-11.412 1.403-22.96-.532-34.245 8.497 1.7 17.041-.598 23.577-6.403 11.136-9.892 24.969-21.552 40.68-33.513 4.336 17.78 6.538 36.315 6.538 55.252 0 19.556-2.348 38.671-6.971 56.977-14.831-11.312-27.978-22.347-38.754-31.865-6.708-5.925-15.827-8.21-24.538-6.203zm148.014 145.958c-9.751.589-29.152-10.841-47.169-27.8-16.913-15.919-25.763-30.251-25.763-36.182v-16.758c32.771 22.889 71.239 44.813 110.298 56.232-9.796 11.062-24.347 23.719-37.366 24.508zm57.942-34.777v-34.856c6.284 4.548 13.545 7.916 21.523 9.735 2.022.461 4.059.687 6.079.687 7.146 0 14.074-2.826 19.32-8.052l13.472-13.424c5.329 14.409 12.007 27.884 19.949 40.252-14.623 5.704-30.682 9.094-48.204 9.094-10.58-.001-21.336-1.229-32.139-3.436zm191.731-123.86c-6.857 14.97-23.328 46.92-49.889 75.064-13.671-22.493-21.148-50.99-21.148-81.294 0-29.684 7.196-57.714 20.362-79.996 27.271 28.62 44.031 61.313 50.675 75.818 1.514 3.307 1.514 7.1 0 10.408z"/></g></g></svg>