<svg id="Capa_1" enable-background="new 0 0 511.9 511.9" height="512" viewBox="0 0 511.9 511.9" width="512" xmlns="http://www.w3.org/2000/svg"><g><path d="m167.619 353.01c-3.23.08-6.18.12-8.8.14.02-2.62.06-5.57.14-8.8.298-11.125-11.337-18.77-21.51-13.91-.45.22-46 21.44-119.44 6.75-9.267-1.853-17.94 5.242-17.94 14.71 0 31.65 10.37 59.44 28.45 76.23 19.023 17.664 37.641 36.28 55.32 55.32 16.79 18.08 44.58 28.45 76.23 28.45 9.502 0 16.556-8.71 14.71-17.94-14.69-73.44 6.53-118.99 6.75-119.43 4.89-10.168-2.746-21.84-13.91-21.52z" fill="#4880fa"/><path d="m181.529 374.53c-.22.44-21.44 45.99-6.75 119.43 1.849 9.246-5.223 17.94-14.71 17.94-31.65 0-59.44-10.37-76.23-28.45-8.83-9.51-17.91-18.93-27.15-28.17l102.13-102.13c2.62-.02 5.57-.06 8.8-.14 11.146-.32 18.809 11.334 13.91 21.52z" fill="#365fde"/><path d="m243.344 447.712c-.999-1.638-24.502-40.61-27.529-84.489-.535-7.746 4.931-14.62 12.599-15.845 53.055-8.473 96.86-24.963 130.2-49.013 9.903-7.145 23.775-.05 23.775 12.165 0 20.6-4.623 42.612-13.368 63.656-24.699 59.41-105.933 79.477-109.379 80.302-6.287 1.505-12.888-1.186-16.298-6.776z" fill="#f2d131"/><path d="m172.069 288.9c-15.322-20.428-65.86-19.892-82.358-18.09-8.909.962-16.642-6.014-16.642-14.91 0-1.783.118-44.202 10.373-89.324 10.857-47.771 33.5-99.747 81.685-109.385 47.246-9.448 75.401 4.204 90.704 17.32 16.934 14.515 22.125 31.392 22.661 33.268 1.364 4.772.278 9.911-2.899 13.724-77.806 93.367-60.301 120.731-77.596 163.969-4.342 10.849-18.916 12.777-25.928 3.428zm77.625-172.716h.01z" fill="#faf17d"/><path d="m402.749 300.141c-44.45 44.447-107.519 66.943-169.6 76.86-28.257 4.495-60.595 6.953-89.91 5.88-7.657-.443-13.71-6.528-14.15-14.15-.02-.39-.53-9.81-.11-25.18 2.207-82.349 24.581-176.042 82.85-234.33 95.068-95.069 249.261-132.729 285.34-94.421 38.158 39.713.156 190.743-94.42 285.341z" fill="#93c5ec"/><path d="m402.749 300.141c-44.45 44.447-107.519 66.943-169.6 76.86-28.257 4.495-60.595 6.953-89.91 5.88-3.81-.22-7.25-1.84-9.77-4.38l363.7-363.7c38.158 39.712.156 190.742-94.42 285.34z" fill="#6aa6fb"/><path d="m497.169 14.8c-16.91-17.96-53.9-16.02-78.28-12.34-38.21 5.78-79.69 20.87-113.81 38.92 0 0 3.29 50.34 59.03 106.07 55.73 55.74 106.63 59.5 106.63 59.5 24.77-47.02 37.61-93.47 40.46-127.77 1.74-20.98.69-49.06-14.03-64.38z" fill="#6aa6fb"/><path d="m511.199 79.18c-2.85 34.31-15.69 80.75-40.46 127.77 0 0-50.77-3.75-106.42-59.3l132.85-132.85c14.72 15.32 15.77 43.4 14.03 64.38z" fill="#4880fa"/><path d="m408.069 94.9c-13.016 0-20.174-15.744-10.61-25.61 6.77-6.572 16.93-5.395 22.21 1.101 7.99 9.789 1.032 24.509-11.6 24.509z" fill="#25429a"/></g></svg>